<svg xmlns="http://www.w3.org/2000/svg" viewBox="0 0 100 100" width="100" height="100" role="img" aria-label="Somni icon, current style">
  <path fill="#e8b44a" fill-rule="evenodd" d="M46 22a30 30 0 1 1 0 60a30 30 0 1 1 0 -60ZM58 26a26 26 0 1 0 0 52a26 26 0 1 0 0 -52Z"/>

  <circle cx="38" cy="34" r="10" fill="#fef0dc"/>
  <ellipse cx="52" cy="40" rx="12" ry="8" fill="#fef0dc" transform="rotate(-20 52 40)"/>

  <path d="M34 33 Q36 31 38 33" stroke="#3d2314" stroke-width="1.2" fill="none" stroke-linecap="round"/>
  <path d="M39 33 Q41 31 43 33" stroke="#3d2314" stroke-width="1.2" fill="none" stroke-linecap="round"/>
  <circle cx="34" cy="36" r="2.5" fill="#f4a57a" opacity="0.4"/>
  <path d="M36 25 Q38 21 40 25" stroke="#d4a060" stroke-width="1.5" fill="none" stroke-linecap="round"/>
</svg>
